<?xml version="1.0" encoding="utf-8"?>
<!DOCTYPE svg PUBLIC "-//W3C//DTD SVG 1.1//EN" "http://www.w3.org/Graphics/SVG/1.1/DTD/svg11.dtd">
<svg style="width:308px;height:308px;" version="1.1" id="图形" xmlns="http://www.w3.org/2000/svg" xmlns:xlink="http://www.w3.org/1999/xlink" x="0px" y="0px" width="1024px" height="1024px" viewBox="0 0 1024 1024" enable-background="new 0 0 1024 1024" xml:space="preserve">
  <path class="svgpath" data-index="path_0" fill="#000000" d="M866.875938 337.066829c1.201361-4.797259 1.856277-9.82067 1.856277-15.052834L868.732216 184.53383c0.004093-43.696198-48.074925-91.650373-92.451622-91.650373L637.615441 92.883457c-27.821649 0-66.175165 9.843182-90.924849 27.953655-9.609869 5.334495-18.0941 11.42726-24.635073 17.869996L178.386318 478.128565c-31.367405 30.898731-31.367405 80.992639 0 111.897509l181.88756 167.344333c31.371498 30.899754 107.289562 30.899754 138.671293 0L845.613682 413.664368C866.169857 393.419278 873.255229 363.7874 866.875938 337.066829zM547.711851 467.082998l53.667294 53.667294-27.78481 27.779693-53.335742-53.337789-40.244586 40.249703 53.499471 53.501518-26.627451 26.626427-53.748135-53.752228-53.998845 53.999868-53.990658-53.990658 53.870932-53.875025-55.109132-55.110155 26.872021-26.872021 55.109132 55.110155 40.248679-40.249703-55.232952-55.232952 27.368324-27.373441 54.992475 54.987359 44.36851-176.145789 35.33988 35.337833-36.694737 153.196101 152.279219-37.608549 34.014698 34.016745L547.711851 467.082998zM799.395034 253.276471c-20.921495 20.597107-71.52501 20.597107-92.451622 0-20.908192-20.602224-20.908192-71.053266 0-91.650373 20.925588-20.6012 71.529103-20.6012 92.451622 0C820.315506 182.223205 820.315506 232.674247 799.395034 253.276471z" />
<path class="svgpath" data-index="path_1" fill="#000000" d="M361.801674 830.272787c36.906561 38.721907 91.290169 48.582485 140.097782-1.636267L783.272845 549.890982l-174.953637 331.080487c-19.413142 37.039591-72.623018 62.839187-110.219287 43.718711l-220.449831-109.278869c-33.92874-17.257036-51.890834-36.826743-30.402427-90.622974L361.801674 830.272787z" />

</svg>
